<mxfile host="app.diagrams.net" modified="2023-05-16T04:01:02.859Z" agent="Mozilla/5.0 (Windows NT 10.0; Win64; x64) AppleWebKit/537.36 (KHTML, like Gecko) Chrome/113.0.0.0 Safari/537.36" etag="eaz0caSkwU8ySRs2UfBp" version="21.3.2" type="github">
  <diagram id="R2lEEEUBdFMjLlhIrx00" name="Page-1">
    <mxGraphModel dx="882" dy="606" grid="1" gridSize="10" guides="1" tooltips="1" connect="1" arrows="1" fold="1" page="1" pageScale="1" pageWidth="850" pageHeight="1100" math="0" shadow="0" extFonts="Permanent Marker^https://fonts.googleapis.com/css?family=Permanent+Marker">
      <root>
        <mxCell id="0" />
        <mxCell id="1" parent="0" />
        <mxCell id="bP7QXjPDy8Wm8rS-N-9a-8" style="edgeStyle=orthogonalEdgeStyle;rounded=0;orthogonalLoop=1;jettySize=auto;html=1;exitX=0.25;exitY=0;exitDx=0;exitDy=0;entryX=1;entryY=0.5;entryDx=0;entryDy=0;" edge="1" parent="1" source="bP7QXjPDy8Wm8rS-N-9a-1" target="bP7QXjPDy8Wm8rS-N-9a-3">
          <mxGeometry relative="1" as="geometry" />
        </mxCell>
        <mxCell id="bP7QXjPDy8Wm8rS-N-9a-9" style="edgeStyle=orthogonalEdgeStyle;rounded=0;orthogonalLoop=1;jettySize=auto;html=1;exitX=0.75;exitY=0;exitDx=0;exitDy=0;entryX=0;entryY=0.5;entryDx=0;entryDy=0;" edge="1" parent="1" source="bP7QXjPDy8Wm8rS-N-9a-1" target="bP7QXjPDy8Wm8rS-N-9a-5">
          <mxGeometry relative="1" as="geometry" />
        </mxCell>
        <mxCell id="bP7QXjPDy8Wm8rS-N-9a-10" style="edgeStyle=orthogonalEdgeStyle;rounded=0;orthogonalLoop=1;jettySize=auto;html=1;exitX=0.25;exitY=1;exitDx=0;exitDy=0;entryX=1;entryY=0.5;entryDx=0;entryDy=0;" edge="1" parent="1" source="bP7QXjPDy8Wm8rS-N-9a-1" target="bP7QXjPDy8Wm8rS-N-9a-2">
          <mxGeometry relative="1" as="geometry" />
        </mxCell>
        <mxCell id="bP7QXjPDy8Wm8rS-N-9a-11" style="edgeStyle=orthogonalEdgeStyle;rounded=0;orthogonalLoop=1;jettySize=auto;html=1;exitX=0.75;exitY=1;exitDx=0;exitDy=0;entryX=0;entryY=0.5;entryDx=0;entryDy=0;" edge="1" parent="1" source="bP7QXjPDy8Wm8rS-N-9a-1" target="bP7QXjPDy8Wm8rS-N-9a-4">
          <mxGeometry relative="1" as="geometry" />
        </mxCell>
        <mxCell id="bP7QXjPDy8Wm8rS-N-9a-1" value="登录界面" style="rounded=1;whiteSpace=wrap;html=1;" vertex="1" parent="1">
          <mxGeometry x="320" y="200" width="120" height="60" as="geometry" />
        </mxCell>
        <mxCell id="bP7QXjPDy8Wm8rS-N-9a-2" value="训练界面" style="rounded=1;whiteSpace=wrap;html=1;" vertex="1" parent="1">
          <mxGeometry x="160" y="260" width="120" height="60" as="geometry" />
        </mxCell>
        <mxCell id="bP7QXjPDy8Wm8rS-N-9a-3" value="数据处理界面" style="rounded=1;whiteSpace=wrap;html=1;" vertex="1" parent="1">
          <mxGeometry x="160" y="140" width="120" height="60" as="geometry" />
        </mxCell>
        <mxCell id="bP7QXjPDy8Wm8rS-N-9a-4" value="预测界面" style="rounded=1;whiteSpace=wrap;html=1;" vertex="1" parent="1">
          <mxGeometry x="480" y="260" width="120" height="60" as="geometry" />
        </mxCell>
        <mxCell id="bP7QXjPDy8Wm8rS-N-9a-5" value="权限管理界面" style="rounded=1;whiteSpace=wrap;html=1;" vertex="1" parent="1">
          <mxGeometry x="480" y="140" width="120" height="60" as="geometry" />
        </mxCell>
      </root>
    </mxGraphModel>
  </diagram>
</mxfile>
